<?xml version="1.0" standalone="no"?>
<!DOCTYPE svg PUBLIC "-//W3C//DTD SVG 20010904//EN"
 "http://www.w3.org/TR/2001/REC-SVG-20010904/DTD/svg10.dtd">
<svg version="1.0" xmlns="http://www.w3.org/2000/svg"
 width="500.000000pt" height="500.000000pt" viewBox="0 0 500.000000 500.000000"
 preserveAspectRatio="xMidYMid meet">

<g transform="translate(0.000000,500.000000) scale(0.100000,-0.100000)"
fill="#000000" stroke="none">
<path d="M841 3791 c-12 -8 -10 -59 5 -113 4 -14 0 -15 -33 -7 -124 29 -242
-17 -280 -110 -49 -118 29 -381 139 -465 34 -25 40 -26 167 -26 l132 0 48 45
c58 54 94 123 122 234 35 138 13 227 -70 286 -39 27 -50 30 -122 30 l-79 0 0
62 c0 64 -6 78 -29 64z"/>
<path d="M2152 3340 c-87 -53 -94 -222 -13 -294 30 -27 84 -26 114 2 29 27 44
28 52 2 13 -42 25 -17 25 54 0 63 3 75 18 79 9 3 -19 5 -63 5 -47 0 -70 -3
-55 -7 21 -6 25 -13 28 -54 3 -39 -1 -51 -23 -73 -24 -24 -28 -25 -48 -11 -21
13 -22 23 -25 145 -3 141 4 162 52 162 28 0 72 -45 87 -88 6 -18 15 -32 20
-32 10 0 12 53 3 99 -6 28 -8 29 -19 15 -11 -16 -14 -16 -36 -1 -32 23 -77 21
-117 -3z"/>
<path d="M2475 3335 c-29 -28 -33 -74 -9 -110 9 -13 44 -42 78 -63 81 -52 92
-66 78 -97 -11 -23 -32 -31 -72 -25 -26 3 -52 33 -76 85 l-23 50 0 -74 c-1
-65 1 -72 14 -61 13 11 22 10 49 -5 29 -16 40 -17 74 -7 51 16 74 42 74 87 0
44 -15 62 -97 115 -70 46 -93 80 -69 105 9 8 24 15 34 15 26 0 89 -56 96 -86
9 -35 24 -29 24 9 0 45 -11 82 -20 67 -5 -9 -15 -8 -38 4 -45 23 -89 20 -117
-9z"/>
<path d="M2834 3350 c-50 -20 -91 -121 -78 -192 10 -51 44 -105 78 -123 26
-14 38 -15 72 -6 22 6 48 19 56 28 19 21 40 93 28 93 -4 0 -11 -15 -14 -33 -7
-38 -39 -71 -75 -80 -16 -4 -30 1 -47 18 -22 22 -24 31 -24 132 0 116 12 156
46 161 29 4 71 -33 84 -76 21 -65 30 -59 30 18 0 69 -1 72 -17 57 -16 -13 -21
-14 -43 -2 -28 16 -65 18 -96 5z"/>
<path d="M3590 3353 c-24 -9 -61 -46 -77 -78 -54 -103 31 -271 127 -250 40 9
89 51 106 92 52 122 -49 275 -156 236z m76 -24 c16 -18 19 -37 19 -139 0 -130
-8 -150 -56 -150 -50 0 -61 32 -57 163 3 122 12 147 53 147 12 0 30 -9 41 -21z"/>
<path d="M3924 3341 c-39 -23 -74 -94 -74 -147 0 -48 28 -111 64 -144 54 -49
144 -21 182 57 39 83 15 183 -56 230 -40 28 -75 29 -116 4z m96 -11 c18 -18
20 -33 20 -133 0 -129 -11 -157 -60 -157 -43 0 -50 23 -50 159 0 95 3 123 16
135 21 22 50 20 74 -4z"/>
<path d="M1508 3343 c22 -4 22 -7 22 -149 0 -140 -1 -145 -22 -154 -16 -7 11
-9 91 -7 110 2 114 3 137 30 13 16 24 39 24 53 0 26 -43 74 -66 74 -8 0 -14 5
-14 10 0 6 6 10 14 10 19 0 56 47 56 70 0 10 -14 30 -31 44 -29 25 -36 26
-132 25 -56 -1 -92 -4 -79 -6z m162 -22 c19 -36 12 -89 -14 -106 -41 -27 -56
-11 -56 61 l0 64 30 0 c19 0 33 -7 40 -19z m4 -153 c36 -50 4 -133 -47 -126
-20 3 -22 10 -25 76 l-3 72 30 0 c20 0 35 -8 45 -22z"/>
<path d="M1857 3343 c31 -6 34 -26 31 -173 -3 -123 -3 -124 -28 -131 -15 -4 7
-7 55 -7 65 -1 76 1 58 10 -22 11 -23 16 -23 154 0 140 0 143 23 147 12 2 -14
4 -58 4 -44 0 -70 -2 -58 -4z"/>
<path d="M3097 3343 c31 -6 34 -26 31 -173 -3 -123 -3 -124 -28 -131 -15 -4 7
-7 55 -7 65 -1 76 1 58 10 -21 10 -23 18 -23 80 l0 68 55 0 55 0 0 -70 c0 -64
-2 -72 -22 -80 -17 -6 -1 -9 57 -9 58 0 74 3 58 9 -22 9 -23 13 -23 154 0 142
0 145 23 149 12 2 -14 4 -58 4 -44 0 -70 -2 -57 -4 20 -4 22 -10 22 -69 l0
-64 -55 0 -55 0 0 64 c0 59 2 65 23 69 12 2 -14 4 -58 4 -44 0 -70 -2 -58 -4z"/>
<path d="M4215 3343 c11 -3 23 -10 27 -17 4 -6 8 -67 8 -136 0 -69 -4 -130 -8
-136 -4 -7 -16 -14 -27 -17 -11 -2 40 -5 113 -6 l132 -1 -1 73 c0 61 -2 68
-11 47 -6 -14 -18 -40 -26 -58 -18 -39 -50 -57 -86 -48 l-26 6 0 144 c0 142 0
145 23 149 12 2 -14 4 -58 4 -44 1 -71 -2 -60 -4z"/>
<path d="M232 2798 c-8 -8 -12 -54 -12 -140 0 -152 -3 -148 124 -148 85 0 86
0 86 25 0 24 -2 25 -65 25 l-65 0 0 100 0 100 65 0 c63 0 65 1 65 25 0 25 0
25 -93 25 -59 0 -97 -4 -105 -12z"/>
</g>
</svg>
